PathFileType	4	(X/Y/Z)	F:\biomechanics\vid_Sports2D\vid_Sports2D_px_person00.trc
DataRate	CameraRate	NumFrames	NumMarkers	Units	OrigDataRate	OrigDataStartFrame	OrigNumFrames
250.0	250.0	6	22	m	250.0	0	808
Frame#	Time	Hip			RHip			RKnee			RAnkle			RBigToe			RSmallToe			RHeel			LHip			LKnee			LAnkle			LBigToe			LSmallToe			LHeel			Neck			Head			Nose			RShoulder			RElbow			RWrist			LShoulder			LElbow			LWrist			
		X1	Y1	Z1	X2	Y2	Z2	X3	Y3	Z3	X4	Y4	Z4	X5	Y5	Z5	X6	Y6	Z6	X7	Y7	Z7	X8	Y8	Z8	X9	Y9	Z9	X10	Y10	Z10	X11	Y11	Z11	X12	Y12	Z12	X13	Y13	Z13	X14	Y14	Z14	X15	Y15	Z15	X16	Y16	Z16	X17	Y17	Z17	X18	Y18	Z18	X19	Y19	Z19	X20	Y20	Z20	X21	Y21	Z21	X22	Y22	Z22
0	0.0	33.89136095227645	314.44077616885215	0.0	19.637787160057332	313.66592330938585	0.0	-3.642827314703386	375.21733984615815	0.0	-12.53951821924927	434.8027588911408	0.0	0.0	0.0	0.0	0.0	0.0	0.0	22.076327026319404	449.9514793027988	0.0	47.350717917931576	316.0334426193176	0.0	77.37462636083033	369.7905620525783	0.0	90.88829589748089	436.97964550888685	0.0	120.99282445157547	442.67456739252975	0.0	119.44283118194141	439.5057810631592	0.0	84.52610005806635	448.81746047150966	0.0	59.12504782988484	225.84972367973785	0.0	74.14972471932188	182.40272533024165	0.0	81.27090631083698	210.05073078746443	0.0	39.386705815144126	237.71086855688307	0.0	14.884400040040942	277.26187587423993	0.0	56.776225327538654	285.9266073997184	0.0	70.22415903022048	240.14079520259605	0.0	51.900706094081734	273.25319502299783	0.0	69.40017544514274	289.1684717588672	0.0
1	0.004004956629491946	34.7065123473202	314.51661116258515	0.0	20.4498559275249	313.7373145612105	0.0	-3.0622671186460875	375.71743929062467	0.0	-12.440193903693363	433.77084508774874	0.0	0.0	0.0	0.0	0.0	0.0	0.0	19.275904616664867	449.8846174828435	0.0	48.071931328783755	316.17432225836103	0.0	78.04618548647485	369.7750094172871	0.0	91.0673420559618	437.1254932319823	0.0	121.41756640483209	443.2256535753713	0.0	119.88604742393576	440.1037544372594	0.0	84.58728060623297	448.85052190305913	0.0	59.674734077533635	225.98320945494328	0.0	74.57752737133875	182.54612560118505	0.0	81.9349878102215	210.09906369341792	0.0	40.04378278898194	237.79742393118937	0.0	15.460900041006225	277.2797634231879	0.0	57.419446823264046	286.0026131259768	0.0	71.01396942876977	240.15474448283555	0.0	52.58576639590177	273.37788638675335	0.0	70.20435280458078	289.3408048758279	0.0
2	0.008009913258983892	35.54231296460845	314.59240081458233	0.0	21.28191794860468	313.80783610190645	0.0	-2.459738570622027	376.2276234316969	0.0	-12.327333125668135	432.66188347871116	0.0	0.0	0.0	0.0	0.0	0.0	0.0	16.513444760130117	449.68581864944815	0.0	48.81954719049003	316.3096513488849	0.0	78.73820623210624	369.760053483742	0.0	91.24839053650241	437.2688322952203	0.0	121.83653465050186	443.78384644091045	0.0	120.32276149208421	440.7032033268367	0.0	84.64821953062929	448.8790928652656	0.0	60.24061100262552	226.11736419258017	0.0	75.02670504309599	182.68655201754018	0.0	82.61658155230755	210.14443075957652	0.0	40.71662507893706	237.88384689842024	0.0	16.05536401333764	277.2976020310278	0.0	58.07562482620242	286.08638335101364	0.0	71.82085528802658	240.1716015969888	0.0	53.296161522577954	273.5000814846399	0.0	71.0325822152254	289.5127041472335	0.0
3	0.012014869888475839	36.39519427641143	314.6669612761647	0.0	22.130750610590024	313.876636264525	0.0	-1.8362017545317	376.746210720064	0.0	-12.198088061490855	431.47646396678414	0.0	0.0	0.0	0.0	0.0	0.0	0.0	13.830497772665582	449.33482373803855	0.0	49.59207357276247	316.4368427140962	0.0	79.44835768979206	369.745523806204	0.0	91.43074719137219	437.4074491353971	0.0	122.2436746271624	444.34425208498885	0.0	120.74775440090991	441.29775487345046	0.0	84.70894464545123	448.9014946113404	0.0	60.821546364333216	226.25072941160263	0.0	75.49725887186091	182.821590806349	0.0	83.31311336101572	210.18592687686908	0.0	41.40242743309018	237.96920335000866	0.0	16.666049001139175	277.31483913286866	0.0	58.7413123004556	286.17818533420296	0.0	72.64083047819837	240.19206726839587	0.0	54.030222416086794	273.6182786239569	0.0	71.88193430100377	289.6814251922976	0.0
4	0.016019826517967784	37.261999604398284	314.7393608410901	0.0	22.993374249940302	313.9429582600716	0.0	-1.1921515474414466	377.2711668790575	0.0	-12.050452056915441	430.2161510612007	0.0	0.0	0.0	0.0	0.0	0.0	0.0	11.264274291221302	448.81208922382467	0.0	50.38782054688218	316.5537938403569	0.0	80.17428123704649	369.73127708649224	0.0	91.61351671394851	437.539553639098	0.0	122.6337367606975	444.9023342695523	0.0	121.15638339815399	441.88177221535847	0.0	84.76940461051483	448.91645552338144	0.0	61.41614586803327	226.38212839455898	0.0	75.98884668297661	182.94922866097377	0.0	84.02207583286837	210.22260668031805	0.0	42.09853259418583	238.05283778823798	0.0	17.29112560025056	277.3311034009159	0.0	59.413667506757655	286.27832685498373	0.0	73.4701971508448	240.21644165466523	0.0	54.78596605177384	273.73112936720014	0.0	72.74966861434824	289.8449474984812	0.0
5	0.02002478314745973	38.139806240506694	314.809022938992	0.0	23.86700098905373	314.0061028680453	0.0	-0.527642316172532	377.8003476204769	0.0	-11.883480390319704	428.8839115194556	0.0	0.0	0.0	0.0	0.0	0.0	0.0	8.845456145657598	448.09947237736617	0.0	51.204857591536445	316.6588499901807	0.0	80.91364599249202	369.71718227428266	0.0	91.79568644472708	437.6637808401499	0.0	123.00246992382671	445.45392787851074	0.0	121.54455574401318	442.4503597634239	0.0	84.82952787288102	448.92315194288364	0.0	62.02285467357801	226.51071582463624	0.0	76.50095266439472	183.06788042267337	0.0	84.74113572477464	210.25361662587585	0.0	42.80245518519739	238.13433366869737	0.0	17.928738998620105	277.34618651869863	0.0	60.09027609561462	286.3870988689172	0.0	74.30556270828293	240.2446941993115	0.0	55.56134454570891	273.83756496836645	0.0	73.63326750976968	290.0017594420132	0.0
